<?xml version="1.0" standalone="no"?>
<!DOCTYPE svg PUBLIC "-//W3C//DTD SVG 20010904//EN"
 "http://www.w3.org/TR/2001/REC-SVG-20010904/DTD/svg10.dtd">
<svg version="1.0" xmlns="http://www.w3.org/2000/svg"
 width="168.000000pt" height="168.000000pt" viewBox="0 0 168.000000 168.000000"
 preserveAspectRatio="xMidYMid meet">
<metadata>
Created by potrace 1.11, written by Peter Selinger 2001-2013
</metadata>
<g transform="translate(0.000000,168.000000) scale(0.100000,-0.100000)"
fill="#000000" stroke="none">
<path d="M669 1636 c-19 -7 -40 -11 -47 -8 -7 2 -12 -1 -12 -7 0 -6 -7 -11
-16 -11 -8 0 -35 -9 -60 -20 -24 -11 -55 -25 -68 -30 -55 -21 -206 -132 -252
-187 -27 -32 -57 -66 -67 -76 -18 -18 -71 -124 -72 -142 0 -5 -4 -13 -8 -16
-7 -5 -17 -44 -20 -81 -1 -10 -4 -18 -7 -18 -4 0 -7 -6 -8 -12 -2 -34 -9 -65
-15 -75 -10 -16 -8 -150 4 -213 12 -66 49 -191 60 -206 5 -6 6 -14 2 -17 -3
-4 -1 -7 6 -7 7 0 9 -4 6 -10 -3 -5 -1 -10 4 -10 6 0 10 -4 8 -8 -4 -13 45
-102 54 -97 4 3 11 -4 14 -15 9 -28 180 -200 199 -200 8 0 16 -4 18 -9 2 -5
44 -29 93 -53 92 -46 237 -89 297 -88 18 0 42 0 53 0 76 -1 123 4 145 13 14 5
29 9 34 8 4 -1 22 3 40 9 17 5 36 11 41 12 24 4 201 101 237 130 44 34 146
136 148 146 0 4 15 23 32 42 48 54 119 226 134 325 3 25 9 45 13 45 3 0 5 46
3 102 -4 133 -5 138 -15 138 -4 0 -7 8 -6 18 1 9 -1 24 -4 32 -4 8 -13 38 -21
65 -15 53 -55 151 -71 174 -5 7 -27 31 -47 51 -21 21 -38 40 -38 44 0 13 -85
88 -120 106 -19 10 -44 27 -55 37 -17 16 -77 44 -210 99 -11 4 -24 8 -30 9 -5
0 -17 5 -25 10 -23 15 -308 16 -351 1z"/>
</g>
</svg>
